<?xml version="1.0" encoding="UTF-8"?>
<svg width="177px" height="48px" viewBox="0 0 177 48" version="1.1" xmlns="http://www.w3.org/2000/svg" xmlns:xlink="http://www.w3.org/1999/xlink">
    <!-- Generator: Sketch 51.3 (57544) - http://www.bohemiancoding.com/sketch -->
    <title>logo-red copy</title>
    <desc>Created with Sketch.</desc>
    <defs></defs>
    <g id="Design" stroke="none" stroke-width="1" fill="none" fill-rule="evenodd">
        <g id="logo-red-copy" fill-rule="nonzero">
            <path d="M0,25.5960452 L0,0.293785311 L15.9396155,0.293785311 L15.9396155,5.03107345 L5.4364814,5.03107345 L5.4364814,10.7966102 L13.7576264,10.7966102 L13.7576264,15.4971751 L5.4364814,15.4971751 L5.4364814,25.5960452 L0,25.5960452 Z M19.8967823,0.293785311 L25.2962808,0.293785311 L25.2962808,25.5960452 L19.8967823,25.5960452 L19.8967823,0.293785311 Z M31.2875052,25.5960452 L31.2875052,0.293785311 L36.7239866,0.293785311 L36.7239866,20.8587571 L46.2655662,20.8587571 L46.2655662,25.5960452 L31.2875052,25.5960452 Z M64.091308,16.5988701 L71.7097785,0.293785311 L76.2586711,0.293785311 L79.3652319,25.5960452 L73.9287505,25.5960452 L72.1535729,10.4293785 L66.1993314,22.6949153 L62.0202674,22.6949153 L56.029043,10.4293785 L54.2168826,25.5960452 L48.7804012,25.5960452 L51.9239448,0.293785311 L56.3988717,0.293785311 L64.091308,16.5988701 Z M90.5340577,14.9463277 L95.8226076,14.9463277 L93.1228583,6.13276836 L90.5340577,14.9463277 Z M97.5608023,19.6101695 L88.7588801,19.6101695 L86.5029252,25.5960452 L80.733598,25.5960452 L90.2012119,0.293785311 L96.0814877,0.293785311 L105.512119,25.5960452 L99.8167572,25.5960452 L97.5608023,19.6101695 Z M106.95445,18.1779661 L112.390932,18.1779661 C112.464898,19.7937853 113.759298,21.2259887 116.200167,21.2259887 C118.382156,21.2259887 119.898454,20.1977401 119.935437,18.5451977 C119.97242,17.4067797 119.454659,16.4152542 116.865859,15.680791 L113.796281,14.8361582 C108.174885,13.1101695 107.213331,9.84180791 107.213331,7.56497175 C107.213331,3.0480226 111.096532,0 115.97827,0 C120.896991,0 124.595278,2.90112994 124.595278,7.74858757 L119.195779,7.74858757 C119.195779,6.05932203 118.04931,4.88418079 115.904304,4.88418079 C114.018178,4.88418079 112.612829,5.91242938 112.612829,7.4180791 C112.612829,8.07909605 112.871709,9.29096045 115.349561,9.98870056 L118.382156,10.9435028 C124.558295,12.7062147 125.445884,16.1581921 125.371918,18.5819209 C125.297952,23.6129944 120.712077,26 116.200167,26 C110.652737,26 106.95445,22.7316384 106.95445,18.1779661 Z M140.165065,25.5960452 L140.165065,0.293785311 L145.601546,0.293785311 L145.601546,20.8587571 L155.143126,20.8587571 L155.143126,25.5960452 L140.165065,25.5960452 Z M156.659423,0.293785311 L162.280819,0.293785311 L166.829712,16.8926554 L171.341621,0.293785311 L177,0.293785311 L169.233598,25.5960452 L164.425825,25.5960452 L156.659423,0.293785311 Z" id="Filmas.lv-Copy-3" fill="#14141D"></path>
            <path d="M129,22.9820359 C129,21.257485 130.352601,20 131.982659,20 C133.612717,20 135,21.257485 135,22.9820359 C135,24.742515 133.612717,26 131.982659,26 C130.352601,26 129,24.742515 129,22.9820359 Z" id="Path" fill="#C41E3D"></path>
            <path d="M8.01241396,47.8358413 L6.57470258,47.8358413 L1.50232762,39.3160055 L1.50232762,47.8358413 L0,47.8358413 L0,36.5253078 L1.48617356,36.5253078 L6.51008634,44.9794802 L6.51008634,36.5253078 L8.01241396,36.5253078 L8.01241396,47.8358413 Z M16.8048383,47.8358413 L16.8048383,46.6538988 C16.3040624,47.5239398 15.2055863,48 14.1555724,48 C12.0878527,48 10.3270601,46.4240766 10.3270601,43.994528 C10.3270601,41.5485636 12.0878527,40.005472 14.1555724,40.005472 C15.2055863,40.005472 16.3040624,40.4487004 16.8048383,41.3187415 L16.8048383,40.1696306 L18.2587037,40.1696306 L18.2587037,47.8358413 L16.8048383,47.8358413 Z M16.7886842,43.9781122 C16.7886842,42.3365253 15.4963594,41.4664843 14.2848049,41.4664843 C12.9278638,41.4664843 11.8293877,42.4514364 11.8293877,43.9781122 C11.8293877,45.4883721 12.9278638,46.5389877 14.2848049,46.5389877 C15.6255919,46.5389877 16.7886842,45.6032832 16.7886842,43.9781122 Z M20.4441173,43.9781122 C20.4441173,41.5485636 22.2856802,40.005472 24.4341702,40.005472 C25.5811085,40.005472 26.6311225,40.4487004 27.3419011,41.2366621 L26.2272709,42.1887825 C25.7749573,41.7291382 25.1287948,41.4664843 24.4341702,41.4664843 C23.0772292,41.4664843 21.8979828,42.4350205 21.8979828,43.9781122 C21.8979828,45.5212038 23.0772292,46.5554036 24.4341702,46.5554036 C25.1287948,46.5554036 25.7749573,46.2763338 26.2272709,45.8002736 L27.3580552,46.752394 C26.6472765,47.5403557 25.5972626,48 24.4341702,48 C22.2856802,48 20.4441173,46.4076607 20.4441173,43.9781122 Z M30.9004098,47.8358413 L29.4465444,47.8358413 L29.4465444,40.1696306 L30.9004098,40.1696306 L30.9004098,47.8358413 Z M29.1557713,37.3461012 C29.1557713,36.7879617 29.6242391,36.377565 30.1734771,36.377565 C30.7388692,36.377565 31.1911829,36.7879617 31.1911829,37.3461012 C31.1911829,37.9042408 30.7388692,38.3146375 30.1734771,38.3146375 C29.6242391,38.3146375 29.1557713,37.9042408 29.1557713,37.3461012 Z M37.0274142,48 C34.8789242,48 33.0858234,46.4076607 33.0858234,43.9781122 C33.0858234,41.5485636 34.8789242,40.005472 37.0274142,40.005472 C39.1759042,40.005472 40.985159,41.5485636 40.985159,43.9781122 C40.985159,46.4076607 39.1759042,48 37.0274142,48 Z M37.0274142,46.5554036 C38.3843553,46.5554036 39.5151395,45.5376197 39.5151395,43.9781122 C39.5151395,42.4350205 38.3843553,41.4664843 37.0274142,41.4664843 C35.6704731,41.4664843 34.5396889,42.4350205 34.5396889,43.9781122 C34.5396889,45.5376197 35.6704731,46.5554036 37.0274142,46.5554036 Z M44.6405921,43.6990424 L44.6405921,47.8358413 L43.1705726,47.8358413 L43.1705726,40.1696306 L44.6405921,40.1696306 L44.6405921,41.3187415 C45.0929058,40.3994528 46.1752278,40.005472 46.9990849,40.005472 C48.8729559,40.005472 49.9068158,41.253078 49.9068158,43.4035568 L49.9068158,47.8358413 L48.4367963,47.8358413 L48.4367963,43.502052 C48.4367963,42.2216142 47.8067879,41.4664843 46.772928,41.4664843 C45.7067601,41.4664843 44.6405921,42.0738714 44.6405921,43.6990424 Z M58.4730832,47.8358413 L58.4730832,46.6538988 C57.9723073,47.5239398 56.8738312,48 55.8238173,48 C53.7560976,48 51.995305,46.4240766 51.995305,43.994528 C51.995305,41.5485636 53.7560976,40.005472 55.8238173,40.005472 C56.8738312,40.005472 57.9723073,40.4487004 58.4730832,41.3187415 L58.4730832,40.1696306 L59.9269487,40.1696306 L59.9269487,47.8358413 L58.4730832,47.8358413 Z M58.4569292,43.9781122 C58.4569292,42.3365253 57.1646043,41.4664843 55.9530498,41.4664843 C54.5961087,41.4664843 53.4976326,42.4514364 53.4976326,43.9781122 C53.4976326,45.4883721 54.5961087,46.5389877 55.9530498,46.5389877 C57.2938368,46.5389877 58.4569292,45.6032832 58.4569292,43.9781122 Z M54.1599491,37.001368 L58.2307723,37.001368 L58.2307723,38.3146375 L54.1599491,38.3146375 L54.1599491,37.001368 Z M62.6131381,36 L64.0831576,36 L64.0831576,47.8358413 L62.6131381,47.8358413 L62.6131381,36 Z M72.7463494,47.8358413 L72.7463494,46.6538988 C72.2455736,47.5239398 71.1470975,48 70.0970835,48 C68.0293638,48 66.2685712,46.4240766 66.2685712,43.994528 C66.2685712,41.5485636 68.0293638,40.005472 70.0970835,40.005472 C71.1470975,40.005472 72.2455736,40.4487004 72.7463494,41.3187415 L72.7463494,40.1696306 L74.2002149,40.1696306 L74.2002149,47.8358413 L72.7463494,47.8358413 Z M72.7301954,43.9781122 C72.7301954,42.3365253 71.4378705,41.4664843 70.226316,41.4664843 C68.8693749,41.4664843 67.7708988,42.4514364 67.7708988,43.9781122 C67.7708988,45.4883721 68.8693749,46.5389877 70.226316,46.5389877 C71.567103,46.5389877 72.7301954,45.6032832 72.7301954,43.9781122 Z M78.3402698,47.8358413 L76.8864043,47.8358413 L76.8864043,40.1696306 L78.3402698,40.1696306 L78.3402698,47.8358413 Z M76.5956313,37.3461012 C76.5956313,36.7879617 77.064099,36.377565 77.6133371,36.377565 C78.1787292,36.377565 78.6310429,36.7879617 78.6310429,37.3461012 C78.6310429,37.9042408 78.1787292,38.3146375 77.6133371,38.3146375 C77.064099,38.3146375 76.5956313,37.9042408 76.5956313,37.3461012 Z M82.7387897,44.4541724 C81.3656945,44.0766074 80.5902996,43.370725 80.7195321,41.9589603 C80.8326105,40.8426813 81.9957029,40.005472 83.3364899,40.005472 C84.6126607,40.005472 85.8242152,40.6128591 85.9534477,42.1723666 L84.5480444,42.1723666 C84.4672741,41.5978112 83.9503442,41.3023256 83.368798,41.3023256 C82.81956,41.3023256 82.3510922,41.5813953 82.2380138,41.9917921 C82.1733975,42.2380301 82.1733975,42.4186047 82.2541678,42.5991792 C82.3995544,42.9110807 82.7549437,43.0752394 83.1426412,43.1901505 L84.2572713,43.4692202 C85.8242152,43.8632011 86.2119126,44.8317373 86.2119126,45.7017784 C86.2119126,47.129959 84.8549716,48 83.2880277,48 C81.9310866,48 80.5256834,47.1135431 80.4772212,45.5376197 L81.8180082,45.5376197 C81.8664704,45.8659371 82.0764732,46.2270862 82.4318625,46.4076607 C82.7549437,46.6046512 83.1426412,46.7031464 83.627263,46.6703146 C84.3057335,46.621067 84.7580472,46.2270862 84.7742013,45.6689466 C84.7903553,45.1108071 84.3218876,44.8317373 83.7726495,44.7004104 L82.7387897,44.4541724 Z M95.8328095,42.1723666 L101.002109,47.8358413 L98.9828512,47.8358413 L94.5727928,43.0095759 L94.5727928,47.8358413 L93.0704651,47.8358413 L93.0704651,36.5253078 L94.5727928,36.5253078 L94.5727928,41.4172367 L98.2559185,36.5253078 L100.113635,36.5253078 L95.8328095,42.1723666 Z M103.801377,47.8358413 L102.347511,47.8358413 L102.347511,40.1696306 L103.801377,40.1696306 L103.801377,47.8358413 Z M102.056738,37.3461012 C102.056738,36.7879617 102.525206,36.377565 103.074444,36.377565 C103.639836,36.377565 104.09215,36.7879617 104.09215,37.3461012 C104.09215,37.9042408 103.639836,38.3146375 103.074444,38.3146375 C102.525206,38.3146375 102.056738,37.9042408 102.056738,37.3461012 Z M107.957586,43.6990424 L107.957586,47.8358413 L106.487566,47.8358413 L106.487566,40.1696306 L107.957586,40.1696306 L107.957586,41.3187415 C108.409899,40.3994528 109.492221,40.005472 110.316078,40.005472 C112.189949,40.005472 113.223809,41.253078 113.223809,43.4035568 L113.223809,47.8358413 L111.75379,47.8358413 L111.75379,43.502052 C111.75379,42.2216142 111.123781,41.4664843 110.089922,41.4664843 C109.023754,41.4664843 107.957586,42.0738714 107.957586,43.6990424 Z M119.253889,48 C117.105399,48 115.312299,46.4076607 115.312299,43.9781122 C115.312299,41.5485636 117.105399,40.005472 119.253889,40.005472 C121.402379,40.005472 123.211634,41.5485636 123.211634,43.9781122 C123.211634,46.4076607 121.402379,48 119.253889,48 Z M119.253889,46.5554036 C120.61083,46.5554036 121.741615,45.5376197 121.741615,43.9781122 C121.741615,42.4350205 120.61083,41.4664843 119.253889,41.4664843 C117.896948,41.4664843 116.766164,42.4350205 116.766164,43.9781122 C116.766164,45.5376197 117.896948,46.5554036 119.253889,46.5554036 Z M129.3271,43.9781122 C129.3271,41.5485636 131.168663,40.005472 133.317153,40.005472 C134.464091,40.005472 135.514105,40.4487004 136.224884,41.2366621 L135.110253,42.1887825 C134.65794,41.7291382 134.011777,41.4664843 133.317153,41.4664843 C131.960212,41.4664843 130.780965,42.4350205 130.780965,43.9781122 C130.780965,45.5212038 131.960212,46.5554036 133.317153,46.5554036 C134.011777,46.5554036 134.65794,46.2763338 135.110253,45.8002736 L136.241038,46.752394 C135.530259,47.5403557 134.480245,48 133.317153,48 C131.168663,48 129.3271,46.4076607 129.3271,43.9781122 Z M139.104922,43.4035568 L143.789599,43.4035568 C143.611905,42.123119 142.707277,41.3515732 141.495723,41.3515732 C140.25186,41.3515732 139.282616,42.123119 139.104922,43.4035568 Z M145.243465,43.9781122 C145.243465,44.1586867 145.243465,44.4049248 145.227311,44.5690834 L139.104922,44.5690834 C139.282616,45.8495212 140.268014,46.6538988 141.544185,46.6538988 C142.448812,46.6538988 143.288823,46.2270862 143.708829,45.4719562 C144.096526,45.6361149 144.564994,45.8002736 144.968846,45.9644323 C144.322683,47.3105335 142.949588,48 141.495723,48 C139.347233,48 137.634902,46.4076607 137.634902,43.9781122 C137.634902,41.5485636 139.347233,40.005472 141.495723,40.005472 C143.644213,40.005472 145.243465,41.5485636 145.243465,43.9781122 Z M148.818128,43.6990424 L148.818128,47.8358413 L147.348108,47.8358413 L147.348108,40.1696306 L148.818128,40.1696306 L148.818128,41.3187415 C149.270441,40.3994528 150.352763,40.005472 151.17662,40.005472 C153.050491,40.005472 154.084351,41.253078 154.084351,43.4035568 L154.084351,47.8358413 L152.614332,47.8358413 L152.614332,43.502052 C152.614332,42.2216142 151.984323,41.4664843 150.950464,41.4664843 C149.884296,41.4664843 148.818128,42.0738714 148.818128,43.6990424 Z M158.709028,40.1696306 L160.30828,40.1696306 L160.30828,41.4336525 L158.709028,41.4336525 L158.709028,47.8358413 L157.239008,47.8358413 L157.239008,41.4336525 L155.882067,41.4336525 L155.882067,40.1696306 L157.239008,40.1696306 L157.239008,37.2804378 L158.709028,37.2804378 L158.709028,40.1696306 Z M163.67294,45.0451436 L163.67294,47.8358413 L162.20292,47.8358413 L162.20292,40.1696306 L163.67294,40.1696306 L163.67294,41.8932969 C164.060637,40.5471956 164.78757,40.005472 165.772968,40.005472 C166.306052,40.005472 166.871444,40.1532148 167.081447,40.3009576 L166.85529,41.6963064 C166.451438,41.499316 166.047587,41.4336525 165.74066,41.4336525 C164.286794,41.4336525 163.67294,43.0095759 163.67294,45.0451436 Z M170.526877,44.4541724 C169.153782,44.0766074 168.378387,43.370725 168.507619,41.9589603 C168.620698,40.8426813 169.78379,40.005472 171.124577,40.005472 C172.400748,40.005472 173.612303,40.6128591 173.741535,42.1723666 L172.336132,42.1723666 C172.255361,41.5978112 171.738432,41.3023256 171.156885,41.3023256 C170.607647,41.3023256 170.13918,41.5813953 170.026101,41.9917921 C169.961485,42.2380301 169.961485,42.4186047 170.042255,42.5991792 C170.187642,42.9110807 170.543031,43.0752394 170.930729,43.1901505 L172.045359,43.4692202 C173.612303,43.8632011 174,44.8317373 174,45.7017784 C174,47.129959 172.643059,48 171.076115,48 C169.719174,48 168.313771,47.1135431 168.265309,45.5376197 L169.606096,45.5376197 C169.654558,45.8659371 169.864561,46.2270862 170.21995,46.4076607 C170.543031,46.6046512 170.930729,46.7031464 171.41535,46.6703146 C172.093821,46.621067 172.546135,46.2270862 172.562289,45.6689466 C172.578443,45.1108071 172.109975,44.8317373 171.560737,44.7004104 L170.526877,44.4541724 Z" id="NacionÄlais-Kino-cen-Copy" fill="#14141D"></path>
        </g>
    </g>
</svg>